<?xml version="1.0" encoding="UTF-8"?>
<svg version="1.1" xmlns="http://www.w3.org/2000/svg" width="891" height="141">
<path d="M0 0 C294.03 0 588.06 0 891 0 C891 46.53 891 93.06 891 141 C596.97 141 302.94 141 0 141 C0 94.47 0 47.94 0 0 Z " fill="#FDFDFD" transform="translate(0,0)"/>
<path d="M0 0 C11.03444964 8.00386136 17.54532771 18.12769478 20.1875 31.375 C22.77453953 49.14974575 21.69114088 68.71475861 10.875 83.7734375 C2.2063923 94.06740914 -8.7517553 99.14263382 -22 101 C-36.93112569 102.14826503 -50.76650882 100.17511839 -63 91 C-73.63472941 81.42874353 -79.11363714 69.87189048 -80.17724609 55.62597656 C-80.97971372 38.33737018 -78.83108462 22.07905565 -68.375 7.77734375 C-51.61562036 -10.55322773 -20.65586886 -11.19995 0 0 Z " fill="#101010" transform="translate(262,20)"/>
<path d="M0 0 C3.72977736 2.19675967 5.17965422 4.09194515 7 8 C7.53625 8.99902344 8.0725 9.99804688 8.625 11.02734375 C12.57078732 18.85726546 15.64344796 27.05850613 18.75 35.25 C19.12688965 36.24322266 19.5037793 37.23644531 19.89208984 38.25976562 C22.05151612 44.07872925 23.87324436 49.89097874 25.39550781 55.90917969 C25.80896719 57.96993146 25.80896719 57.96993146 27 59 C27.42345703 57.57300781 27.42345703 57.57300781 27.85546875 56.1171875 C30.89091481 46.30722139 34.60159697 36.81299663 38.64199829 27.37896729 C39.20908549 26.05446621 39.77260949 24.72843325 40.33236694 23.40081787 C43.86988211 15.03721807 47.29872485 7.11361576 54.25 1.03125 C58.47552057 -0.55332021 62.52309058 -0.51297655 67 -0.5 C67.88945313 -0.52835938 68.77890625 -0.55671875 69.6953125 -0.5859375 C73.98797831 -0.59875143 76.34935114 -0.42698832 80 1.96875 C84.57474977 8.90235513 84.53689681 17.93679312 85.1171875 26.01953125 C85.20169159 27.18410355 85.28619568 28.34867584 85.3732605 29.54853821 C86.29322332 43.5590485 86.2292389 57.56281154 86.1373291 71.5947876 C86.11634685 75.15626505 86.10762713 78.7177746 86.09765625 82.27929688 C86.07662187 89.18627144 86.04279526 96.09312664 86 103 C83.61561291 104.19219354 82.12343998 104.12916022 79.46484375 104.1328125 C78.57345703 104.13410156 77.68207031 104.13539062 76.76367188 104.13671875 C75.3647168 104.13091797 75.3647168 104.13091797 73.9375 104.125 C73.00099609 104.12886719 72.06449219 104.13273437 71.09960938 104.13671875 C69.76446289 104.13478516 69.76446289 104.13478516 68.40234375 104.1328125 C67.58241943 104.13168457 66.76249512 104.13055664 65.91772461 104.12939453 C64 104 64 104 63 103 C62.87513046 100.62798453 62.81399948 98.28359657 62.79467773 95.90991211 C62.78477814 95.16849472 62.77487854 94.42707733 62.76467896 93.66319275 C62.73297534 91.20127607 62.70827174 88.73934007 62.68359375 86.27734375 C62.66303186 84.57482895 62.6420356 82.87231935 62.62062073 81.16981506 C62.56532101 76.68012691 62.51594672 72.19039208 62.46777344 67.70062256 C62.41761594 63.12263822 62.36189992 58.54472197 62.30664062 53.96679688 C62.19896249 44.9779227 62.09753912 35.9889895 62 27 C53.36311751 47.88143535 53.36311751 47.88143535 45.5 69.0625 C44.89671875 70.75729492 44.89671875 70.75729492 44.28125 72.48632812 C42.23794169 78.2701005 40.35742802 84.01588862 38.88867188 89.97436523 C37.73301251 92.60857011 36.47281756 93.56654338 34 95 C32.03295898 95.38818359 32.03295898 95.38818359 29.99609375 95.3984375 C29.25552734 95.40230469 28.51496094 95.40617187 27.75195312 95.41015625 C26.60629883 95.39275391 26.60629883 95.39275391 25.4375 95.375 C24.66986328 95.38660156 23.90222656 95.39820312 23.11132812 95.41015625 C17.64647187 95.38156938 17.64647187 95.38156938 15.16015625 93.9140625 C12.13535352 88.92364722 10.52886547 83.6583865 9 78.0625 C6.45139902 69.05716261 3.41720364 60.22238507 0.375 51.375 C0.13330078 50.66900665 -0.10839844 49.96301331 -0.35742188 49.23562622 C-1.06046979 47.18456372 -1.76769444 45.13499496 -2.4765625 43.0859375 C-2.88986816 41.8901709 -3.30317383 40.6944043 -3.72900391 39.46240234 C-4.63588096 36.99192013 -5.58701184 34.63973185 -6.65771484 32.24462891 C-8 29 -8 29 -8 26 C-8.66 26 -9.32 26 -10 26 C-9.99705429 26.92438622 -9.99705429 26.92438622 -9.99404907 27.8674469 C-9.95162508 43.43642507 -10.03950826 58.99900489 -10.31738281 74.56567383 C-10.35649674 76.85466715 -10.39117643 79.14373968 -10.421875 81.43286133 C-10.46716067 84.79791704 -10.52503018 88.16253909 -10.5859375 91.52734375 C-10.60326431 93.06756447 -10.60326431 93.06756447 -10.62094116 94.63890076 C-10.64081085 95.57911575 -10.66068054 96.51933075 -10.68115234 97.48803711 C-10.69447601 98.31420029 -10.70779968 99.14036346 -10.7215271 99.99156189 C-11 102 -11 102 -13 104 C-14.86352539 104.24291992 -14.86352539 104.24291992 -17.09765625 104.23046875 C-17.89880859 104.22853516 -18.69996094 104.22660156 -19.52539062 104.22460938 C-20.36263672 104.21236328 -21.19988281 104.20011719 -22.0625 104.1875 C-22.90361328 104.18685547 -23.74472656 104.18621094 -24.61132812 104.18554688 C-30.85976816 104.14023184 -30.85976816 104.14023184 -32 103 C-32.10415221 101.32749125 -32.13853795 99.65058857 -32.14526367 97.97485352 C-32.15483345 96.35904137 -32.15483345 96.35904137 -32.16459656 94.71058655 C-32.16570938 93.52863205 -32.1668222 92.34667755 -32.16796875 91.12890625 C-32.17129715 89.90461411 -32.17462555 88.68032196 -32.17805481 87.41893005 C-32.18313858 84.80346045 -32.18546269 82.18798431 -32.18530273 79.57250977 C-32.18518425 75.66609618 -32.20545198 71.7598826 -32.22460938 67.85351562 C-32.35686312 10.36981622 -32.35686312 10.36981622 -24 1 C-16.8520708 -1.38264307 -7.38248483 -1.3489095 0 0 Z " fill="#0E0E0E" transform="translate(488,15)"/>
<path d="M0 0 C2.91824439 0.15294782 3.97388183 0.97523862 6.10546875 2.99609375 C7.13607422 4.20458984 7.13607422 4.20458984 8.1875 5.4375 C8.88230469 6.24058594 9.57710938 7.04367188 10.29296875 7.87109375 C13.56096991 11.94674737 13.15450588 15.59544793 13.16113281 20.62475586 C13.16858017 21.96395836 13.16858017 21.96395836 13.17617798 23.33021545 C13.19081633 26.29176597 13.19760383 29.25326296 13.203125 32.21484375 C13.20887438 34.26746116 13.21463214 36.32007855 13.22039795 38.37269592 C13.23091223 42.67937471 13.23675233 46.98603479 13.24023438 51.29272461 C13.24572478 56.81902362 13.26976273 62.34507694 13.29820633 67.87129879 C13.31680117 72.11170684 13.32203659 76.3520553 13.32357025 80.59250069 C13.32660366 82.6303193 13.33465521 84.66813669 13.34775543 86.70591545 C13.36475262 89.55275223 13.36295141 92.39898311 13.35644531 95.24584961 C13.3656601 96.09218964 13.37487488 96.93852966 13.3843689 97.81051636 C13.34309173 103.55711194 13.34309173 103.55711194 11.67136765 105.71509647 C7.63735813 108.81633698 0.81184081 107.39235848 -4 107 C-12.13474693 105.29042096 -18.41135601 98.09295448 -23.0625 91.625 C-23.52164795 90.99198975 -23.9807959 90.35897949 -24.45385742 89.70678711 C-30.47918704 81.17833535 -35.54784818 72.05361185 -40.70947266 62.98876953 C-46.07008063 53.61935906 -51.55325122 44.31949085 -57 35 C-57.00808685 35.87252411 -57.01617371 36.74504822 -57.02450562 37.64401245 C-57.10235287 45.85512683 -57.18961329 54.06607504 -57.28752708 62.27697563 C-57.33753492 66.49858165 -57.38386433 70.72016209 -57.421875 74.94189453 C-57.45867145 79.01389539 -57.50501554 83.08568458 -57.55806351 87.15750504 C-57.57663758 88.71324079 -57.59173435 90.26902197 -57.60334396 91.82482529 C-57.62015532 93.9991614 -57.6491766 96.17300953 -57.68115234 98.34716797 C-57.69447601 99.58626923 -57.70779968 100.82537048 -57.7215271 102.10202026 C-58 105 -58 105 -60 107 C-61.93945312 107.25878906 -61.93945312 107.25878906 -64.28125 107.265625 C-65.12300781 107.26820312 -65.96476562 107.27078125 -66.83203125 107.2734375 C-67.71246094 107.26570313 -68.59289062 107.25796875 -69.5 107.25 C-70.38042969 107.25773437 -71.26085937 107.26546875 -72.16796875 107.2734375 C-73.00972656 107.27085938 -73.85148437 107.26828125 -74.71875 107.265625 C-75.49154297 107.26336914 -76.26433594 107.26111328 -77.06054688 107.25878906 C-79 107 -79 107 -81 105 C-81.20952637 101.91769327 -81.29362342 98.924544 -81.29052734 95.84033203 C-81.29724457 94.89061523 -81.30396179 93.94089844 -81.31088257 92.96240234 C-81.32994014 89.81081973 -81.33379074 86.65944921 -81.3359375 83.5078125 C-81.34236029 81.32306835 -81.34908825 79.13832507 -81.35610962 76.95358276 C-81.368102 72.36861171 -81.37178845 67.78371611 -81.37060547 63.19873047 C-81.37040223 57.31820152 -81.39770112 51.4381556 -81.43214989 45.55774117 C-81.45436819 41.04362763 -81.45844456 36.52963123 -81.45738602 32.0154686 C-81.45974975 29.84729218 -81.46861647 27.67911291 -81.48405075 25.51099014 C-81.50360696 22.47980017 -81.49791317 19.4496633 -81.48583984 16.41845703 C-81.49707886 15.51960785 -81.50831787 14.62075867 -81.51989746 13.69467163 C-81.45863405 7.65379049 -81.45863405 7.65379049 -79.20889282 4.44674683 C-75.88217178 2.26786198 -72.59762782 2.36058902 -68.75 2.4375 C-67.60156616 2.45502319 -67.60156616 2.45502319 -66.42993164 2.47290039 C-59.1003899 2.76025664 -55.21575748 4.67523379 -50.12744141 9.93603516 C-45.42050429 15.12759599 -41.53663872 20.43404746 -37.9375 26.4375 C-37.39802734 27.32203857 -36.85855469 28.20657715 -36.30273438 29.11791992 C-31.10182038 37.70283797 -26.09024161 46.4008788 -21.11303711 55.11694336 C-20.51885986 56.15729736 -19.92468262 57.19765137 -19.3125 58.26953125 C-18.53326172 59.64008667 -18.53326172 59.64008667 -17.73828125 61.03833008 C-15.56596428 64.73950664 -13.29029235 68.37099801 -11 72 C-11.00523682 71.27052155 -11.01047363 70.54104309 -11.01586914 69.78945923 C-11.05835552 62.87567497 -11.06202388 55.9628104 -11.02334595 49.04903603 C-11.00480063 45.49530638 -11.00065974 41.94283711 -11.03076172 38.38916016 C-11.06480582 34.2924196 -11.0338173 30.19830936 -11 26.1015625 C-11.0194165 24.8407486 -11.03883301 23.57993469 -11.05883789 22.28091431 C-10.91161166 13.17816366 -8.45049452 8.37248096 -2 2 C-1.34 1.34 -0.68 0.68 0 0 Z " fill="#0F0F0F" transform="translate(381,12)"/>
<path d="M0 0 C0.82886719 -0.01095703 1.65773438 -0.02191406 2.51171875 -0.03320312 C7.95427144 0.03169218 11.28676177 0.83468656 15.5 4.5625 C33.20855271 28.6762739 46.7002325 68.07019782 46.625 97.9375 C46.62886719 99.49597656 46.62886719 99.49597656 46.6328125 101.0859375 C46.5 103.5625 46.5 103.5625 45.5 104.5625 C41.86100825 104.81406269 38.20916327 104.74772226 34.5625 104.75 C33.02045898 104.76836914 33.02045898 104.76836914 31.44726562 104.78710938 C30.46564453 104.78904297 29.48402344 104.79097656 28.47265625 104.79296875 C27.11539429 104.79913208 27.11539429 104.79913208 25.73071289 104.80541992 C23.5 104.5625 23.5 104.5625 21.5 102.5625 C21.08935547 100.40771484 21.08935547 100.40771484 20.8671875 97.7734375 C20.75286377 96.50185791 20.75286377 96.50185791 20.63623047 95.20458984 C20.55002441 94.1264502 20.46381836 93.04831055 20.375 91.9375 C20.08625 88.51375 19.7975 85.09 19.5 81.5625 C6.3 81.5625 -6.9 81.5625 -20.5 81.5625 C-20.74948303 88.38319064 -20.74948303 88.38319064 -20.97802734 95.20458984 C-21.0136377 96.05230957 -21.04924805 96.9000293 -21.0859375 97.7734375 C-21.1173584 98.64274902 -21.1487793 99.51206055 -21.18115234 100.40771484 C-21.5 102.5625 -21.5 102.5625 -23.5 104.5625 C-25.73071289 104.80541992 -25.73071289 104.80541992 -28.47265625 104.79296875 C-29.45427734 104.79103516 -30.43589844 104.78910156 -31.44726562 104.78710938 C-32.47529297 104.77486328 -33.50332031 104.76261719 -34.5625 104.75 C-35.59439453 104.74935547 -36.62628906 104.74871094 -37.68945312 104.74804688 C-45.35984003 104.70265997 -45.35984003 104.70265997 -46.5 103.5625 C-47.05185149 72.85590614 -34.25760014 25.56324006 -12.84765625 2.734375 C-8.40955071 -0.14495602 -5.17274702 -0.14882709 0 0 Z " fill="#0E0E0E" transform="translate(636.5,14.4375)"/>
<path d="M0 0 C0.78430389 -0.00287018 1.56860779 -0.00574036 2.37667847 -0.00869751 C4.03237634 -0.01073156 5.68809861 -0.0052479 7.34375 0.00732422 C9.83910985 0.02325821 12.33281794 0.00752146 14.828125 -0.01171875 C27.85163099 -0.02927174 40.50868658 0.71628709 50.4921875 10.03125 C57.03476084 17.04564353 57.28272247 25.3316241 57.05859375 34.50390625 C56.42887281 42.2549159 53.66309738 47.34400224 47.7421875 52.3984375 C45.14024067 54.56672653 42.56137319 56.51898038 39.7421875 58.3984375 C40.23847656 58.78773437 40.73476563 59.17703125 41.24609375 59.578125 C52.56367064 68.89848244 60.70053532 83.31327964 64.7421875 97.3984375 C64.9296875 100.7109375 64.9296875 100.7109375 64.7421875 103.3984375 C62.45659284 105.68403216 56.99842546 104.58380495 53.9296875 104.5859375 C53.01380859 104.59818359 52.09792969 104.61042969 51.15429688 104.62304688 C50.26935547 104.62498047 49.38441406 104.62691406 48.47265625 104.62890625 C47.25678833 104.63506958 47.25678833 104.63506958 46.01635742 104.64135742 C43.44410535 104.36659727 41.89790828 103.824766 39.7421875 102.3984375 C38.39768528 99.80043648 37.23738488 97.27686227 36.1171875 94.5859375 C30.55154766 82.01767694 22.30714163 71.13427677 11.3046875 62.7734375 C8.7421875 60.3984375 8.7421875 60.3984375 7.9296875 58.0234375 C9.27262151 53.68472763 12.05995579 50.97667286 15.7421875 48.3984375 C18.04952936 47.67911287 20.27090218 47.28838966 22.65625 46.91796875 C26.01899113 46.0804321 27.66681247 44.05751175 29.7421875 41.3984375 C31.57680205 35.89459384 31.43706365 30.34409071 29.4921875 24.8984375 C27.56396456 22.1438333 26.8420481 21.52891472 23.7421875 20.3984375 C21.15122792 20.18205584 18.7043533 20.07354686 16.1171875 20.0859375 C15.4365625 20.06982422 14.7559375 20.05371094 14.0546875 20.03710938 C11.84633975 19.99894005 11.84633975 19.99894005 8.7421875 20.3984375 C6.29824035 24.06435822 6.43576889 26.84072037 6.42333984 31.08276367 C6.41329422 31.8634874 6.4032486 32.64421112 6.39289856 33.44859314 C6.36200429 36.02952334 6.34501421 38.61034952 6.328125 41.19140625 C6.30941836 42.98074747 6.28984533 44.77007982 6.2694397 46.55940247 C6.21805919 51.26934589 6.17846519 55.97931793 6.14129639 60.68939209 C6.10129381 65.49547438 6.0501844 70.30143702 6 75.10742188 C5.90317066 84.53767643 5.81878832 93.96799846 5.7421875 103.3984375 C2.08876356 105.22514947 -2.23620409 104.58314472 -6.2578125 104.5859375 C-7.1859375 104.59818359 -8.1140625 104.61042969 -9.0703125 104.62304688 C-9.9571875 104.62498047 -10.8440625 104.62691406 -11.7578125 104.62890625 C-12.97984375 104.63506958 -12.97984375 104.63506958 -14.2265625 104.64135742 C-16.2578125 104.3984375 -16.2578125 104.3984375 -18.2578125 102.3984375 C-18.46703278 99.58456439 -18.55145138 96.86832407 -18.54833984 94.05249023 C-18.55505707 93.18883347 -18.56177429 92.3251767 -18.56869507 91.43534851 C-18.58775844 88.56751817 -18.59160437 85.6999211 -18.59375 82.83203125 C-18.60017547 80.83862715 -18.60690364 78.845224 -18.61392212 76.8518219 C-18.62591807 72.66445736 -18.6296009 68.47717544 -18.62841797 64.28979492 C-18.62821541 58.93885091 -18.65544197 53.58844177 -18.68996239 48.23762417 C-18.71227399 44.11533711 -18.71625409 39.9931775 -18.71519852 35.87083626 C-18.71755097 33.89937572 -18.72635435 31.92791148 -18.74186325 29.95651054 C-18.76159583 27.18735079 -18.75565537 24.41932697 -18.74365234 21.65014648 C-18.75489136 20.84407959 -18.76613037 20.0380127 -18.77770996 19.20751953 C-18.71348025 13.33690073 -17.33597054 8.44016269 -14.2578125 3.3984375 C-9.80822667 0.08210929 -5.38165365 -0.04412091 0 0 Z " fill="#0E0E0E" transform="translate(717.2578125,14.6015625)"/>
<path d="M0 0 C0.70125 0.53625 1.4025 1.0725 2.125 1.625 C3.1975 2.346875 4.27 3.06875 5.375 3.8125 C8.09677236 8.18677701 7.80959827 12.60941685 7.125 17.625 C6.09765625 20.46875 6.09765625 20.46875 5.125 22.625 C-2.95873604 23.00724321 -7.17694835 22.70670971 -13.5 17.4375 C-18.22264432 14.90126509 -22.60744644 14.94069546 -27.875 15.625 C-30.65331644 16.73339689 -31.75384016 17.4787726 -33.6875 19.8125 C-35.28388632 23.59341496 -35.01509771 25.70591414 -33.875 29.625 C-30.36790393 32.93478213 -26.74724913 34.74117527 -22.3125 36.5625 C-21.7026123 36.81773438 -21.09272461 37.07296875 -20.46435547 37.3359375 C-17.5149779 38.56618371 -14.55229384 39.75064536 -11.57421875 40.91015625 C-2.749467 44.39744697 4.40866336 48.13559405 9.125 56.625 C11.868989 64.85696701 11.77262778 77.55470707 8.125 85.4375 C2.99450063 93.58594018 -3.87476736 97.72686684 -12.875 100.625 C-14.07125 101.0375 -15.2675 101.45 -16.5 101.875 C-27.6193317 104.37347332 -41.4061658 103.58104423 -51.5078125 98.23046875 C-55.89254258 95.44595366 -59.77880307 92.75699122 -61.55859375 87.671875 C-61.91391506 85.37325319 -61.9716936 83.20016475 -61.9375 80.875 C-61.92847656 80.07578125 -61.91945313 79.2765625 -61.91015625 78.453125 C-61.89855469 77.84984375 -61.88695313 77.2465625 -61.875 76.625 C-56.8550657 73.66084832 -51.52763254 73.7637154 -45.875 74.625 C-43.41817184 75.93348559 -41.54993585 77.34650996 -39.49609375 79.21484375 C-35.09352097 83.04455164 -28.33352435 81.91304878 -22.875 81.625 C-19.32421304 81.00675024 -19.32421304 81.00675024 -16.875 79.625 C-15.63072621 75.89217862 -15.23596003 72.49727794 -15.875 68.625 C-20.52495307 61.96006726 -29.14376927 59.25519184 -36.47753906 56.49438477 C-46.11293932 52.83490104 -53.59668611 48.66023367 -59 39.6171875 C-62.05980478 32.6506677 -62.08368445 23.17070457 -60.15625 15.921875 C-56.36824817 6.94064486 -50.56818318 1.80780698 -41.875 -2.375 C-29.61015865 -6.94886165 -11.18324145 -7.18922665 0 0 Z " fill="#0F0F0F" transform="translate(158.875,18.375)"/>
<path d="M0 0 C1.56124612 -0.00472363 3.12248719 -0.01152412 4.68371582 -0.02029419 C7.94540744 -0.03057645 11.20575113 -0.01574206 14.46728516 0.01708984 C18.63076314 0.0569775 22.79108259 0.03399266 26.95444489 -0.0079174 C30.17530761 -0.03331582 33.39543174 -0.02511591 36.61631775 -0.00702286 C38.15038943 -0.00238144 39.68453003 -0.00798431 41.21852112 -0.02437973 C54.62938242 -0.13628949 54.62938242 -0.13628949 59.90820312 4.17529297 C62.6655816 6.91879266 63.44588273 9.09289824 63.96875 12.9296875 C62.67939081 14.07811673 61.38718421 15.22334977 60.09375 16.3671875 C59.37445312 17.00527344 58.65515625 17.64335937 57.9140625 18.30078125 C54.79003716 20.91668198 52.96435588 21.0503519 48.9609375 21.02734375 C47.97480469 21.02412109 46.98867188 21.02089844 45.97265625 21.01757812 C44.94011719 21.00919922 43.90757812 21.00082031 42.84375 20.9921875 C41.28333984 20.98541992 41.28333984 20.98541992 39.69140625 20.97851562 C37.11713038 20.96670702 34.54296854 20.95023825 31.96875 20.9296875 C31.97319122 21.95254852 31.97763245 22.97540955 31.98220825 24.02926636 C32.02269266 33.65298815 32.05270467 43.27669275 32.07237434 52.90048027 C32.08282654 57.84856582 32.09701183 62.79658282 32.11962891 67.74462891 C32.14130623 72.51676231 32.1533078 77.28882963 32.15850449 82.06100845 C32.16220946 83.8847368 32.169444 85.70846139 32.18021011 87.53216171 C32.19465721 90.07995262 32.19673081 92.62746792 32.19580078 95.17529297 C32.20299133 95.93486298 32.21018188 96.69443298 32.21759033 97.47702026 C32.19685432 102.70158318 32.19685432 102.70158318 29.96875 104.9296875 C27.82983398 105.17260742 27.82983398 105.17260742 25.21484375 105.16015625 C24.27833984 105.15822266 23.34183594 105.15628906 22.37695312 105.15429688 C21.39662109 105.14205078 20.41628906 105.12980469 19.40625 105.1171875 C18.42205078 105.11654297 17.43785156 105.11589844 16.42382812 105.11523438 C9.10892532 105.06986282 9.10892532 105.06986282 7.96875 103.9296875 C7.87365441 101.31280309 7.84319 98.7223985 7.85522461 96.10522461 C7.85507858 95.28577866 7.85493256 94.4663327 7.8547821 93.62205505 C7.85548148 90.90035397 7.86327499 88.17872045 7.87109375 85.45703125 C7.87295784 83.57516009 7.87438179 81.69328844 7.87538147 79.81141663 C7.87920733 74.84820221 7.88903819 69.88501686 7.90008545 64.92181396 C7.9102981 59.86129144 7.91487878 54.80076423 7.91992188 49.74023438 C7.9306604 39.80337262 7.94773764 29.86653247 7.96875 19.9296875 C7.25332031 19.96634521 6.53789063 20.00300293 5.80078125 20.04077148 C2.52388461 20.18728861 -0.75232209 20.27762927 -4.03125 20.3671875 C-5.15660156 20.42583984 -6.28195312 20.48449219 -7.44140625 20.54492188 C-13.47256718 20.66836669 -17.19115913 20.47336076 -21.84375 16.40234375 C-22.9366904 15.27348842 -24.01158147 14.12514104 -25.03125 12.9296875 C-24.33827969 7.8446856 -22.69136666 5.58067935 -18.76586914 2.37445068 C-13.00293851 -0.67024021 -6.36157617 -0.06799302 0 0 Z " fill="#0F0F0F" transform="translate(807.03125,14.0703125)"/>
<path d="M0 0 C4.74680069 0.53029495 6.86477166 3.46081427 9.83766174 6.98085022 C13.58286458 13.54581735 12.91255013 20.7684734 12.75382996 28.10624695 C12.74717912 29.83200121 12.74396158 31.55777174 12.74398804 33.28353882 C12.73473218 36.88928028 12.69571585 40.49298962 12.63298035 44.09819031 C12.55390719 48.6842305 12.53132785 53.26826169 12.5291338 57.85491657 C12.52412193 61.41649372 12.49771791 64.97765419 12.46425438 68.53906822 C12.44917199 70.2280616 12.4384031 71.91709995 12.43230629 73.60614967 C12.33126571 91.23892337 8.57587134 105.76389967 -3.72663879 118.9304657 C-8.33740527 123.24330573 -13.55246272 127.42026641 -19.78913879 128.9070282 C-23.08626837 128.10614814 -24.16748672 126.30199392 -25.95320129 123.5242157 C-26.54101379 122.54968445 -26.54101379 122.54968445 -27.14070129 121.5554657 C-27.76331848 120.60413757 -27.76331848 120.60413757 -28.39851379 119.6335907 C-31.34606903 114.91750233 -31.34606903 114.91750233 -30.98762512 112.18778992 C-29.9729574 109.54217337 -28.41616571 108.73910864 -26.07820129 107.1804657 C-18.54317595 101.57719048 -15.02658918 94.42289381 -13.26570129 85.3054657 C-13.11800816 82.79496161 -13.06223512 80.27768025 -13.0896759 77.76298523 C-13.09408691 77.05611572 -13.09849792 76.34924622 -13.1030426 75.62095642 C-13.11281441 74.10086717 -13.12662084 72.58079936 -13.14413261 71.06077957 C-13.17686221 67.81347257 -13.17410096 64.56647307 -13.17384434 61.31902885 C-13.17398731 55.29115208 -13.18910788 49.26409231 -13.26203918 43.23661804 C-13.31163197 39.02525047 -13.31690349 34.8157691 -13.29390144 30.60419846 C-13.29333644 29.01030146 -13.30880474 27.41630752 -13.3413372 25.82274246 C-13.49996133 17.72617146 -13.46118571 11.69157515 -7.76399231 5.31278992 C-6.29956497 3.93873094 -4.80849677 2.59091022 -3.26570129 1.3054657 C-2.26570129 0.3054657 -2.26570129 0.3054657 0 0 Z " fill="#0F0F0F" transform="translate(67.26570129394531,12.694534301757813)"/>
<path d="M0 0 C7.26808387 4.74650375 11.18292387 10.57513223 13.0625 19 C13.46376793 23.01060373 13.48292579 26.97224647 13.4375 31 C13.44910156 32.02867188 13.46070313 33.05734375 13.47265625 34.1171875 C13.43328681 44.43198006 10.92769696 53.10896901 4.0625 61 C-1.51396619 66.04731247 -9.09833851 65.69733583 -16.21484375 65.375 C-22.77010257 64.71465913 -25.9375834 62.43679802 -30.1875 57.4375 C-35.80611821 49.15980312 -36.21055987 40.61756406 -36.3125 30.875 C-36.32651855 29.94478027 -36.34053711 29.01456055 -36.35498047 28.05615234 C-36.29463366 19.33681262 -34.42411352 11.9389524 -28.9375 5 C-21.57270203 -1.97717703 -9.5223157 -3.35445212 0 0 Z " fill="#FDFDFD" transform="translate(243.9375,35)"/>
<path d="M0 0 C0.66 0 1.32 0 2 0 C6.50568685 8.93132342 10.50941757 17.81380726 13.5 27.375 C13.75475098 28.18880127 14.00950195 29.00260254 14.27197266 29.84106445 C15.21978903 32.97975142 16 35.70360426 16 39 C6.1 39 -3.8 39 -14 39 C-12.61656218 32.0828109 -11.15620495 25.99733163 -8.6875 19.5 C-8.38062256 18.67846436 -8.07374512 17.85692871 -7.75756836 17.01049805 C-5.53125375 11.14924206 -3.05812335 5.48207365 0 0 Z " fill="#F3F3F3" transform="translate(635,39)"/>
</svg>
